<?xml version="1.0" encoding="UTF-8"?>
<svg width="32px" height="32px" viewBox="0 0 32 32" version="1.1" xmlns="http://www.w3.org/2000/svg" xmlns:xlink="http://www.w3.org/1999/xlink">
    <!-- Generator: Sketch 49.1 (51147) - http://www.bohemiancoding.com/sketch -->
    <title>icon_ghost</title>
    <desc>Created with Sketch.</desc>
    <defs></defs>
    <g id="Page-1" stroke="none" stroke-width="1" fill="none" fill-rule="evenodd">
        <g id="icon_ghost" transform="translate(-16.000000, -16.000000)" fill="#0000FF">
            <path d="M36,35 L36,37 C36,38.6570168 34.6565529,40 33,40 C31.3434471,40 30,38.6570168 30,37 L30,35 L27,35 C26.4477153,35 26,34.5522847 26,34 C26,33.4477153 26.4477153,33 27,33 L37,33 C37.5522847,33 38,33.4477153 38,34 C38,34.5522847 37.5522847,35 37,35 L36,35 Z M34,35 L32,35 L32,37 C32,37.5522926 32.447862,38 33,38 C33.552138,38 34,37.5522926 34,37 L34,35 Z M44,31 L44,47 C44,47.5522847 43.5522847,48 43,48 L21,48 C20.4477153,48 20,47.5522847 20,47 L20,32 L17,32 C16.4477153,32 16,31.5522847 16,31 L16,26 C16,25.4477153 16.4477153,25 17,25 C17.5522847,25 18,25.4477153 18,26 L18,30 L20,30 L20,28 C20,21.3727153 25.3727153,16 32,16 C38.6272847,16 44,21.3727153 44,28 L44,29 L46,29 L46,25 C46,24.4477153 46.4477153,24 47,24 C47.5522847,24 48,24.4477153 48,25 L48,30 C48,30.5522847 47.5522847,31 47,31 L44,31 Z M42,46 L42,28 C42,22.4772847 37.5227153,18 32,18 C26.4772847,18 22,22.4772847 22,28 L22,46 L42,46 Z M26,27 C25.4477153,27 25,26.5522847 25,26 C25,25.4477153 25.4477153,25 26,25 L29,25 C29.5522847,25 30,25.4477153 30,26 C30,26.5522847 29.5522847,27 29,27 L26,27 Z M35,27 C34.4477153,27 34,26.5522847 34,26 C34,25.4477153 34.4477153,25 35,25 L38,25 C38.5522847,25 39,25.4477153 39,26 C39,26.5522847 38.5522847,27 38,27 L35,27 Z"></path>
        </g>
    </g>
</svg>